<svg width="43" height="42" viewBox="0 0 43 42" fill="none" xmlns="http://www.w3.org/2000/svg">
<path fill-rule="evenodd" clip-rule="evenodd" d="M24.4289 36.2725V22.3403H29.3082L30.0403 16.9091H24.4289V13.442C24.4289 11.87 24.8827 10.7988 27.2383 10.7988L30.2378 10.7976V5.93969C29.7191 5.87511 27.9385 5.72705 25.8661 5.72705C21.5385 5.72705 18.5758 8.25769 18.5758 12.9041V16.9091H13.6816V22.3403H18.5758V36.2725H24.4289Z" fill="#D1B87A"/>
<mask id="mask0_94_56" style="mask-type:luminance" maskUnits="userSpaceOnUse" x="13" y="5" width="18" height="32">
<path fill-rule="evenodd" clip-rule="evenodd" d="M24.4289 36.2725V22.3403H29.3082L30.0403 16.9091H24.4289V13.442C24.4289 11.87 24.8827 10.7988 27.2383 10.7988L30.2378 10.7976V5.93969C29.7191 5.87511 27.9385 5.72705 25.8661 5.72705C21.5385 5.72705 18.5758 8.25769 18.5758 12.9041V16.9091H13.6816V22.3403H18.5758V36.2725H24.4289Z" fill="white"/>
</mask>
<g mask="url(#mask0_94_56)">
</g>
</svg>
