<svg width="43" height="42" viewBox="0 0 43 42" fill="none" xmlns="http://www.w3.org/2000/svg">
<path fill-rule="evenodd" clip-rule="evenodd" d="M13.6179 3.81836H29.3819C34.7357 3.81836 39.0912 8.0726 39.091 13.3015V28.6989C39.091 33.9278 34.7357 38.182 29.3819 38.182H13.6179C8.26451 38.182 3.90918 33.928 3.90918 28.6989V13.3015C3.90918 8.0726 8.26451 3.81836 13.6179 3.81836ZM29.3821 35.1331C33.0145 35.1331 35.9697 32.2468 35.9697 28.6989H35.9695V13.3015C35.9695 9.75377 33.0143 6.86727 29.3819 6.86727H13.6179C9.9857 6.86727 7.03068 9.75377 7.03068 13.3015V28.6989C7.03068 32.2468 9.9857 35.1333 13.6179 35.1331H29.3821ZM12.2858 21.0004C12.2858 16.0376 16.4193 12.0002 21.5001 12.0002C26.5809 12.0002 30.7144 16.0376 30.7144 21.0004C30.7144 25.963 26.5809 30.0002 21.5001 30.0002C16.4193 30.0002 12.2858 25.963 12.2858 21.0004ZM15.4586 21.0002C15.4586 24.254 18.1689 26.9009 21.5001 26.9009C24.8313 26.9009 27.5416 24.254 27.5416 21.0002C27.5416 17.7462 24.8315 15.099 21.5001 15.099C18.1687 15.099 15.4586 17.7462 15.4586 21.0002Z" fill="#D1B87A"/>
<mask id="mask0_94_57" style="mask-type:luminance" maskUnits="userSpaceOnUse" x="3" y="3" width="37" height="36">
<path fill-rule="evenodd" clip-rule="evenodd" d="M13.6179 3.81836H29.3819C34.7357 3.81836 39.0912 8.0726 39.091 13.3015V28.6989C39.091 33.9278 34.7357 38.182 29.3819 38.182H13.6179C8.26451 38.182 3.90918 33.928 3.90918 28.6989V13.3015C3.90918 8.0726 8.26451 3.81836 13.6179 3.81836ZM29.3821 35.1331C33.0145 35.1331 35.9697 32.2468 35.9697 28.6989H35.9695V13.3015C35.9695 9.75377 33.0143 6.86727 29.3819 6.86727H13.6179C9.9857 6.86727 7.03068 9.75377 7.03068 13.3015V28.6989C7.03068 32.2468 9.9857 35.1333 13.6179 35.1331H29.3821ZM12.2858 21.0004C12.2858 16.0376 16.4193 12.0002 21.5001 12.0002C26.5809 12.0002 30.7144 16.0376 30.7144 21.0004C30.7144 25.963 26.5809 30.0002 21.5001 30.0002C16.4193 30.0002 12.2858 25.963 12.2858 21.0004ZM15.4586 21.0002C15.4586 24.254 18.1689 26.9009 21.5001 26.9009C24.8313 26.9009 27.5416 24.254 27.5416 21.0002C27.5416 17.7462 24.8315 15.099 21.5001 15.099C18.1687 15.099 15.4586 17.7462 15.4586 21.0002Z" fill="white"/>
</mask>
<g mask="url(#mask0_94_57)">
</g>
</svg>
